<svg width="248" height="66" viewBox="0 0 248 66" fill="none" xmlns="http://www.w3.org/2000/svg">
<g clip-path="url(#clip0_3_2544)">
<path d="M103.288 31C108.258 27.6256 114.264 25.6378 120.726 25.6378C123.583 25.6378 126.344 26.0354 128.97 26.7529V0L103.298 31H103.288Z" fill="url(#paint0_linear_3_2544)"/>
<path d="M242.798 2.8797H241.887V2.51123H244.125V2.8797H243.224V5.43961H242.798V2.8797Z" fill="white"/>
<path d="M244.803 2.51123H245.491L246.411 4.94508L247.312 2.51123H248V5.43961H247.583V2.90879H247.574L246.605 5.43961H246.188L245.229 2.90879H245.22V5.43961H244.803V2.51123Z" fill="white"/>
<path d="M44.1362 25.6084H30.3412V2.86987H43.8262V5.9437H33.9256V12.4889H42.1116V15.5627H33.9256V22.5346H44.1362V25.6084Z" fill="white"/>
<path d="M63.395 26.0446C61.845 26.0446 60.3531 25.7828 59.0744 25.2785C58.2025 24.9392 57.6212 24.6192 56.0906 23.6107L55.7612 23.3974L57.6309 20.5854L57.9506 20.789C59.1906 21.6035 59.7137 21.8944 60.4791 22.1853C61.4478 22.5441 62.5037 22.7283 63.5984 22.7283C66.0784 22.7283 67.4831 21.652 67.4831 19.7806C67.4831 19.1988 67.3862 18.7333 67.2022 18.423C66.8341 17.7831 66.2237 17.2207 65.4294 16.7649C65.3325 16.7164 65.1581 16.6292 64.9062 16.4934C64.2669 16.1734 63.1916 15.6207 61.6706 14.8062C58.1347 12.9736 56.6331 11.1506 56.6331 8.71674C56.6331 5.00294 59.7912 2.50122 64.4897 2.50122C65.9137 2.50122 67.2603 2.68546 68.4131 3.05393C69.3528 3.35452 69.8953 3.61633 71.2322 4.38236L71.5712 4.57629L69.8856 7.51437L69.5466 7.32043C68.3937 6.65137 67.9384 6.43804 67.2603 6.21502C66.4562 5.96291 65.1291 5.76898 64.2572 5.76898C61.9128 5.76898 60.3337 6.855 60.3337 8.47433C60.3337 9.81246 61.0022 10.53 65.7006 12.9542C67.3475 13.8075 68.5294 14.5444 69.3431 15.2329C70.5153 16.1928 71.2225 17.8025 71.2225 19.5091C71.2225 23.475 68.1612 26.0252 63.4047 26.0252" fill="white"/>
<path d="M94.9375 26.0449C87.8559 26.0449 82.9056 21.1481 82.9056 14.1471C82.9056 7.14618 87.9625 2.47241 94.6566 2.47241C96.1291 2.47241 97.6016 2.72452 99.0353 3.22875C100.062 3.60691 100.556 3.84933 101.728 4.63476L102.048 4.85778L100.208 7.56313L99.8878 7.3498C98.2313 6.225 96.6425 5.74986 94.55 5.74986C89.9484 5.74986 86.7225 9.13398 86.7225 13.992C86.7225 19.3057 90.0066 22.748 95.1022 22.748C96.9525 22.748 98.3766 22.4668 100.159 21.7396L100.527 21.5844L101.583 24.4449L101.244 24.5904C99.8878 25.1819 99.3163 25.3952 98.1344 25.6764C97.0203 25.9382 96.0516 26.0546 94.9278 26.0546" fill="white"/>
<path d="M7.92438 2.86987H0V25.6084H7.89531C11.9737 25.6084 14.3956 24.6775 16.5366 22.2922C18.5419 20.0716 19.685 17.0948 19.685 14.147C19.685 7.61151 14.7347 2.86987 7.92438 2.86987ZM13.3009 20.6534C11.9253 22.0304 10.3366 22.5443 7.47875 22.5443H3.58438V5.9437H7.47875C12.3128 5.9437 15.9553 9.45387 15.9553 14.1082C15.9553 16.3869 14.8897 19.0147 13.3009 20.6534Z" fill="white"/>
<path d="M151.91 15.6499C153.305 15.3008 154.099 14.8645 154.961 14.0209C156.308 12.7894 157.073 11.0246 157.073 9.1726C157.073 7.42721 156.366 5.71091 155.165 4.5958C153.789 3.30615 152.375 2.86011 149.556 2.86011H142.28V25.5986H145.874V16.1832H148.296L154.525 25.5986H158.691L151.91 15.6402V15.6499ZM145.874 13.1094V5.93393H149.149C151.193 5.93393 151.638 6.05029 152.2 6.48664C152.937 7.04904 153.285 7.93143 153.285 9.21138C153.285 11.8392 151.939 13.1094 149.158 13.1094H145.884H145.874Z" fill="white"/>
<path d="M178.909 25.6084H175.334V5.9437H167.807V2.86987H186.455V5.9437H178.909V25.6084Z" fill="white"/>
<path d="M213.096 25.6084H199.301V2.86987H212.786V5.9437H202.895V12.4889H211.071V15.5627H202.895V22.5346H213.096V25.6084Z" fill="white"/>
<path d="M232.626 26.0446C231.086 26.0446 229.594 25.7828 228.315 25.2785C227.453 24.9392 226.862 24.6192 225.341 23.6107L225.012 23.3974L226.881 20.5854L227.211 20.789C228.451 21.6035 228.974 21.8944 229.739 22.1853C230.708 22.5441 231.754 22.7283 232.849 22.7283C235.319 22.7283 236.743 21.652 236.743 19.7806C236.743 19.1988 236.646 18.7333 236.453 18.423C236.094 17.7831 235.484 17.2207 234.689 16.7649C234.583 16.7164 234.418 16.6292 234.166 16.4934C233.527 16.1734 232.461 15.6207 230.931 14.8062C227.404 12.9736 225.893 11.1506 225.893 8.71674C225.893 5.00294 229.051 2.50122 233.75 2.50122C235.174 2.50122 236.52 2.68546 237.673 3.05393C238.603 3.35452 239.165 3.61633 240.483 4.38236L240.822 4.57629L239.126 7.51437L238.797 7.32043C237.644 6.65137 237.189 6.43804 236.501 6.21502C235.697 5.96291 234.379 5.76898 233.508 5.76898C231.163 5.76898 229.584 6.855 229.584 8.47433C229.584 9.81246 230.243 10.53 234.951 12.9542C236.588 13.8075 237.789 14.5444 238.593 15.2329C239.775 16.1928 240.473 17.8025 240.473 19.5091C240.473 23.475 237.402 26.0252 232.645 26.0252" fill="white"/>
<path d="M125.87 59.0708V34.5129H128.948V49.1494L135.66 42.3715H139.852L132.091 49.7715L140.834 59.0708H136.414L128.948 50.4919V59.0708H125.87Z" fill="white"/>
<path d="M122.437 42.6336L122.175 45.1877C120.997 44.6965 119.818 44.4673 118.836 44.4673C115.397 44.4673 113.466 47.5452 113.466 50.7214C113.466 53.701 115.07 56.9754 119.032 56.9754C120.08 56.9754 121.39 56.648 122.339 56.0258L122.568 58.7763C121.291 59.3657 119.818 59.4639 118.705 59.4639C113.662 59.4639 110.191 55.5019 110.191 50.7214C110.191 45.6461 113.597 41.9788 118.705 41.9788C119.949 41.9788 121.553 42.2735 122.437 42.6336Z" fill="white"/>
<path d="M94.567 46.17L94.4033 43.5505C95.9422 42.6336 97.7759 41.9788 99.9042 41.9788C104.685 41.9788 106.617 44.3363 106.617 48.8877V55.7966C106.617 57.6958 106.682 58.5799 106.748 59.071H103.866V56.9099H103.801C103.08 57.925 101.443 59.4639 98.6272 59.4639C95.0254 59.4639 92.5042 57.8922 92.5042 54.2577C92.5042 50.0665 97.0883 48.7567 100.264 48.7567C101.476 48.7567 102.327 48.7567 103.539 48.8222C103.539 45.9408 102.491 44.4673 99.4131 44.4673C97.6777 44.4673 95.8113 45.1222 94.567 46.17ZM103.539 52.5877V51.1143C102.884 51.1143 102.229 51.0488 101.574 51.0488C99.9042 51.0488 95.7785 51.3107 95.7785 54.2577C95.7785 56.0258 97.4812 56.9754 98.8892 56.9754C101.934 56.9754 103.539 55.0763 103.539 52.5877Z" fill="white"/>
<path d="M81.1365 59.071V42.3717H84.0179V44.9584H84.0834C84.902 43.223 86.6702 41.9788 88.4383 41.9788C89.3551 41.9788 89.8135 42.077 90.4684 42.208V44.9584C89.9118 44.7292 89.2897 44.6638 88.7657 44.6638C86.0153 44.6638 84.2144 47.2833 84.2144 51.4745V59.071H81.1365Z" fill="white"/>
<path d="M70.4638 59.071V39.0973H63.3584V36.2158H80.8435V39.0973H73.7382V59.071H70.4638Z" fill="white"/>
<path d="M45.8461 65.9472V42.3717H48.793V44.7292H48.8585C49.6771 43.485 51.5763 41.9788 54.5232 41.9788C59.3693 41.9788 61.7268 45.9408 61.7268 50.4267C61.7268 55.0108 59.5985 59.4639 54.556 59.4639C51.609 59.4639 49.9391 58.3179 48.9895 56.779H48.924V65.9472H45.8461ZM58.4525 50.6559C58.5179 47.6434 57.2082 44.4673 53.8683 44.4673C50.5285 44.4673 48.924 47.6434 48.924 50.7541C48.924 53.5373 50.3647 56.9754 53.8356 56.9754C57.1427 56.9754 58.5179 53.2754 58.4525 50.6559Z" fill="white"/>
<path d="M37.3714 59.0714V42.3721H40.4493V59.0714H37.3714ZM40.6457 35.1685V38.6393H37.1749V35.1685H40.6457Z" fill="white"/>
<path d="M17.2068 59.0708V34.5129H20.2848V44.7617H20.3502C21.4635 42.9936 23.3954 41.9785 25.7202 41.9785C30.0424 41.9785 31.9743 44.6635 31.9743 49.1494V59.0708H28.8964V50.4264C28.8964 46.5299 28.045 44.6308 25.36 44.4671C21.8565 44.4671 20.2848 47.283 20.2848 51.3433V59.0708H17.2068Z" fill="white"/>
<path d="M12.2134 36.6413L11.755 39.6538C10.0851 38.9989 9.16825 38.7042 7.46557 38.7042C5.63193 38.7042 3.47084 39.3591 3.47084 41.7494C3.47084 46.1371 13.294 45.122 13.294 52.6531C13.294 57.5319 9.52843 59.4638 4.94431 59.4638C3.33986 59.4638 1.76816 59.0054 0.26195 58.5142L0.589387 55.469C1.70268 55.9274 3.6673 56.5823 5.33723 56.5823C7.20363 56.5823 9.82312 55.5345 9.82312 52.8495C9.82312 47.7415 0 49.1495 0 42.0441C0 37.9838 3.20889 35.8228 7.3346 35.8228C8.84081 35.8228 10.6417 36.0847 12.2134 36.6413Z" fill="white"/>
</g>
<defs>
<linearGradient id="paint0_linear_3_2544" x1="119.815" y1="4.69316" x2="114.885" y2="36.9233" gradientUnits="userSpaceOnUse">
<stop stop-color="#00A4E4"/>
<stop offset="1" stop-color="#0079C1"/>
</linearGradient>
<clipPath id="clip0_3_2544">
<rect width="248" height="66" fill="white"/>
</clipPath>
</defs>
</svg>
